<svg xmlns="http://www.w3.org/2000/svg" width="36.859" height="36.859" viewBox="0 0 36.859 36.859">
  <path id="Icon_awesome-arrow-alt-circle-right" data-name="Icon awesome-arrow-alt-circle-right" d="M18.992.563A18.429,18.429,0,1,1,.563,18.992,18.426,18.426,0,0,1,18.992.563Zm-8.62,21.7h8.62V27.53a.892.892,0,0,0,1.523.632l8.494-8.539a.884.884,0,0,0,0-1.256L20.515,9.822a.892.892,0,0,0-1.523.632v5.269h-8.62a.894.894,0,0,0-.892.892V21.37A.894.894,0,0,0,10.372,22.262Z" transform="translate(-0.563 -0.563)" fill="#fff"/>
</svg>
