<svg xmlns="http://www.w3.org/2000/svg" width="34.56" height="23.04" viewBox="0 0 34.56 23.04">
  <path id="Icon_map-general-contractor" data-name="Icon map-general-contractor" d="M25.548,10.824a.326.326,0,0,1-.348-.3V6.079a.283.283,0,0,0-.276-.319H11.075a.283.283,0,0,0-.275.319v4.45c0,.176-.194.271-.374.271H1.043a.367.367,0,0,0-.323.366v4.946c0,.174.146.448.323.448h15.11a.535.535,0,0,0,.407-.448V15.057c0-.176.066-.657.245-.657H19.2c.179,0,.244.482.244.657v1.055a.535.535,0,0,0,.405.448H34.955c.18,0,.325-.274.325-.448V11.166a.366.366,0,0,0-.325-.366H25.573ZM13.027,10.8c-.179,0-.067-.1-.067-.271V8c0-.176-.112-.08.067-.08h9.946c.179,0,.067-.1.067.08v2.529c0,.175.112.271-.067.271H13.027ZM19.48,21.393c0,.174-.105.207-.284.207H16.8c-.179,0-.245.077-.245-.1V17.947c0-.174-.228-.667-.406-.667H1.043c-.177,0-.323.493-.323.667V28.48a.324.324,0,0,0,.323.32H34.955a.323.323,0,0,0,.325-.319V17.947c0-.174-.145-.667-.325-.667H19.845c-.178,0-.405.493-.405.667V21.5l.04-.11Z" transform="translate(-0.72 -5.76)" fill="rgba(255,255,255,0.8)"/>
</svg>
