<svg xmlns="http://www.w3.org/2000/svg" width="11.133" height="9.012" viewBox="0 0 11.133 9.012">
  <path id="Path_71" data-name="Path 71" d="M-.416,0H-1.764L-4.412-2.883h-.023V0H-5.4V-8.883h.961v5.631h.023L-1.893-6h1.26L-3.416-3.105ZM3.7-5.027a1.175,1.175,0,0,0-.727-.193,1.226,1.226,0,0,0-1.028.58,2.682,2.682,0,0,0-.413,1.582V0H.568V-6h.961v1.236h.023a2.1,2.1,0,0,1,.627-.987,1.43,1.43,0,0,1,.943-.354,1.569,1.569,0,0,1,.574.082ZM5.074.129a.622.622,0,0,1-.46-.193.636.636,0,0,1-.19-.463.646.646,0,0,1,.19-.466.617.617,0,0,1,.46-.2.634.634,0,0,1,.469.2.641.641,0,0,1,.193.466.632.632,0,0,1-.193.463A.638.638,0,0,1,5.074.129Z" transform="translate(5.396 8.883)" fill="#fff"/>
</svg>
