<svg id="circle-svg" xmlns="http://www.w3.org/2000/svg" xmlns:xlink="http://www.w3.org/1999/xlink" width="120" height="103.043" viewBox="0 0 120 103.043">
  <defs>
    <clipPath id="clip-path">
      <path id="Clip_4" data-name="Clip 4" d="M51.522,99.13c28.453,0,51.522-22.192,51.522-49.57S79.975,0,51.522,0,0,22.192,0,49.561,23.068,99.13,51.522,99.13Z" fill="#f0f3f5"/>
    </clipPath>
  </defs>
  <g id="Group_10_Copy" data-name="Group 10 Copy">
    <path id="Clip_4-2" data-name="Clip 4" d="M51.522,99.13c28.453,0,51.522-22.192,51.522-49.57S79.975,0,51.522,0,0,22.192,0,49.561,23.068,99.13,51.522,99.13Z" fill="#f0f3f5"/>
    <g id="Group_10_Copy-2" data-name="Group 10 Copy" clip-path="url(#clip-path)">
      <path id="Fill_6" data-name="Fill 6" d="M56.788,0C27.68,0,3.646,21.03,0,48.251a47.542,47.542,0,0,0,55.719-8.095L87.964,8.935A58.351,58.351,0,0,0,56.788,0" transform="translate(-18.849 -18.357)" fill="#386082"/>
    </g>
  </g>
  <path id="Fill_10" data-name="Fill 10" d="M35.135,61.3c32.8,0,59.889-23.936,64-54.934C78.946-4.548,53.8-1.4,36.342,15.593L0,51.132A65.255,65.255,0,0,0,35.135,61.3" transform="translate(20.87 41.739)" fill="#386082"/>
</svg>
