<svg xmlns="http://www.w3.org/2000/svg" width="73.735" height="73.735" viewBox="0 0 73.735 73.735">
  <path id="Icon_awesome-arrow-alt-circle-right" data-name="Icon awesome-arrow-alt-circle-right" d="M37.43.563A36.868,36.868,0,1,1,.563,37.43,36.861,36.861,0,0,1,37.43.563ZM20.186,43.971H37.43v10.54a1.785,1.785,0,0,0,3.048,1.264L57.47,38.694a1.768,1.768,0,0,0,0-2.512l-16.992-17.1a1.784,1.784,0,0,0-3.048,1.264v10.54H20.186A1.789,1.789,0,0,0,18.4,32.673v9.514A1.789,1.789,0,0,0,20.186,43.971Z" transform="translate(-0.563 -0.563)" fill="#fff" opacity="0.85"/>
</svg>
