<svg id="login" xmlns="http://www.w3.org/2000/svg" width="36.402" height="33.449" viewBox="0 0 36.402 33.449">
  <path id="Path" d="M19.339,10.047v5.288a1.614,1.614,0,0,1-.446,1.123,1.494,1.494,0,0,1-1.081.463H15.776a1.494,1.494,0,0,1-1.081-.463,1.614,1.614,0,0,1-.446-1.123V10.047A4.861,4.861,0,0,0,12.89,6.668a4.5,4.5,0,0,0-3.265-1.38,4.719,4.719,0,0,0-4.536,4.819v4.7H0v-4.66A9.933,9.933,0,0,1,9.638,0,9.873,9.873,0,0,1,19.339,10.047Z" transform="translate(17.064)" fill="#386082" opacity="0.6"/>
  <path id="Path-2" data-name="Path" d="M28.439,3.148V15.741a3.1,3.1,0,0,1-3.047,3.148H3.047A3.1,3.1,0,0,1,0,15.741V3.148A3.1,3.1,0,0,1,3.047,0H25.392A3.1,3.1,0,0,1,28.439,3.148Z" transform="translate(0 14.56)" fill="#386082"/>
</svg>
