<svg id="Group_137" data-name="Group 137" xmlns="http://www.w3.org/2000/svg" width="419.733" height="417.205" viewBox="0 0 419.733 417.205">
  <path id="Path_35" data-name="Path 35" d="M440.334,598.375a5.758,5.758,0,0,0-8.773-1l-18.183-9.385,1.13,10.573,17.094,7.292a5.789,5.789,0,0,0,8.732-7.481Z" transform="translate(-310.376 -300.372)" fill="#ffb8b8"/>
  <path id="Path_36" data-name="Path 36" d="M399.668,573.981a2.579,2.579,0,0,1-2.1.022L380.3,566.511a26.555,26.555,0,0,1-13.435-13l-9.08-19.167a8.3,8.3,0,0,1,13.113-10.182l15.961,29.612,14.737,11.133a2.585,2.585,0,0,1,.909,2.818l-1.447,4.672a2.58,2.58,0,0,1-.872,1.266A2.548,2.548,0,0,1,399.668,573.981Z" transform="translate(-285.869 -271.722)" fill="#386082"/>
  <circle id="Ellipse_20" data-name="Ellipse 20" cx="14.064" cy="14.064" r="14.064" transform="translate(57.448 211.956)" fill="#ffb8b8"/>
  <path id="Path_37" data-name="Path 37" d="M134.832,696.7h7.02l3.34-27.078H134.831Z" transform="translate(-57.624 -286.18)" fill="#ffb8b8"/>
  <path id="Path_38" data-name="Path 38" d="M0,0H22.064V8.525H8.525A8.525,8.525,0,0,1,0,0H0Z" transform="translate(97.766 417.037) rotate(179.997)" fill="#2f2e41"/>
  <path id="Path_39" data-name="Path 39" d="M94.832,696.7h7.02l3.34-27.078H94.831Z" transform="translate(-40.529 -286.18)" fill="#ffb8b8"/>
  <path id="Path_40" data-name="Path 40" d="M0,0H22.064V8.525H8.525A8.525,8.525,0,0,1,0,0H0Z" transform="translate(74.861 417.037) rotate(179.997)" fill="#2f2e41"/>
  <path id="Path_41" data-name="Path 41" d="M323.576,718.757a2.576,2.576,0,0,1-.616-2.038l12.291-92.184,30.537,5.186,3.259-1.956-8.427,87.465a2.584,2.584,0,0,1-2.346,2.27l-9.247.771a2.576,2.576,0,0,1-2.787-2.716l2.394-41.654a.286.286,0,0,0-.562-.092L336.23,717.73a2.581,2.581,0,0,1-2.488,1.906h-8.227a2.576,2.576,0,0,1-1.939-.88Z" transform="translate(-271.724 -315.99)" fill="#2f2e41"/>
  <path id="Path_42" data-name="Path 42" d="M345.223,583.521a2.023,2.023,0,0,0-2.586-.108l-6.105,4.749a2.575,2.575,0,0,1-4.058-1.321c-2.995-10.488-9.779-36.887-8.108-55.468.947-10.532,10.042-18.536,20.274-17.865,6.995.466,11.6,4.5,13.678,11.993,5.109,18.394,10.724,52.134,11.8,58.711a2.565,2.565,0,0,1-1.223,2.628,18.86,18.86,0,0,1-9.558,2.69C355.256,589.53,350.369,588.11,345.223,583.521Z" transform="translate(-272.222 -268.523)" fill="#386082"/>
  <path id="Path_43" data-name="Path 43" d="M349.754,628.716a5.758,5.758,0,0,0-6.287-6.2l-8.516-18.606-5.635,9.017,8.951,16.286a5.789,5.789,0,0,0,11.487-.5Z" transform="translate(-274.449 -307.175)" fill="#ffb8b8"/>
  <path id="Path_44" data-name="Path 44" d="M327.886,586.929a2.58,2.58,0,0,1-1.667-1.279L317.252,569.1a26.554,26.554,0,0,1-2.551-18.518l4.683-20.685a8.3,8.3,0,1,1,16.6.081l-5.716,33.151L335,580.98a2.585,2.585,0,0,1-1.024,2.778l-4.022,2.784a2.58,2.58,0,0,1-1.468.458,2.549,2.549,0,0,1-.6-.07Z" transform="translate(-267.923 -272.012)" fill="#386082"/>
  <path id="Path_45" data-name="Path 45" d="M113.023,474.908l-5.154,21.76,7.444,18.324-5.154-17.751Z" transform="translate(-46.101 -202.965)" opacity="0.2"/>
  <path id="Path_46" data-name="Path 46" d="M345.113,481.64a14.007,14.007,0,0,1-12.582-7.918,15.354,15.354,0,0,1,1.384-15.315,13.743,13.743,0,0,1,13.776-5.3,15.28,15.28,0,0,1,9.441-2.711,9.269,9.269,0,0,1,7.811,5.595c1.236,3.229-.092,7.484-3.165,8.8-1.971.841-4.2.433-6.3.094s-4.4-.561-6.227.577-2.653,4.187-1.014,5.609a6.1,6.1,0,0,1,1.62,6.508C349.034,479.808,346.786,481.6,345.113,481.64Z" transform="translate(-275.214 -241.546)" fill="#2f2e41"/>
  <path id="Path_47" data-name="Path 47" d="M670.843,184.74h-2.29V122.012a36.305,36.305,0,0,0-36.306-36.305h-132.9a36.305,36.305,0,0,0-36.305,36.305V466.144a36.305,36.305,0,0,0,36.305,36.305h132.9a36.305,36.305,0,0,0,36.305-36.305V229.391h2.29Z" transform="translate(-331.602 -85.707)" fill="#e6e6e6"/>
  <path id="Path_48" data-name="Path 48" d="M668.3,129.315V472.94a27.114,27.114,0,0,1-27.113,27.114H507.654A27.114,27.114,0,0,1,480.54,472.94V129.315A27.114,27.114,0,0,1,507.653,102.2h16.2a12.888,12.888,0,0,0,11.928,17.746h76.136A12.888,12.888,0,0,0,623.845,102.2h17.345A27.114,27.114,0,0,1,668.3,129.314Z" transform="translate(-339.079 -92.756)" fill="#fff"/>
  <path id="Path_49" data-name="Path 49" d="M663.983,434.278a6.947,6.947,0,0,0-6.523-4.587H514.41a6.928,6.928,0,0,0-6.931,6.931V546.4a6.941,6.941,0,0,0,6.931,6.931H657.46a6.941,6.941,0,0,0,6.931-6.931V436.622a6.879,6.879,0,0,0-.408-2.344Z" transform="translate(-350.592 -232.718)" fill="#f2f2f2"/>
  <path id="Path_50" data-name="Path 50" d="M663.983,193.475a6.947,6.947,0,0,0-6.523-4.587H514.41a6.928,6.928,0,0,0-6.931,6.931V305.594a6.941,6.941,0,0,0,6.931,6.931H657.46a6.941,6.941,0,0,0,6.931-6.931V195.819a6.879,6.879,0,0,0-.408-2.344Z" transform="translate(-350.592 -129.804)" fill="#fff"/>
  <path id="Path_51" data-name="Path 51" d="M663.983,193.475a6.947,6.947,0,0,0-6.523-4.587H514.41a6.928,6.928,0,0,0-6.931,6.931V305.594a6.941,6.941,0,0,0,6.931,6.931H657.46a6.941,6.941,0,0,0,6.931-6.931V195.819a6.879,6.879,0,0,0-.408-2.344Zm-.408,112.119a6.123,6.123,0,0,1-6.116,6.116H514.41a6.123,6.123,0,0,1-6.116-6.116V195.819a6.123,6.123,0,0,1,6.116-6.116H657.46a6.123,6.123,0,0,1,6.116,6.116Z" transform="translate(-350.592 -129.804)" fill="#3f3d56"/>
  <path id="Path_52" data-name="Path 52" d="M662.238,213.243V289.9a1.929,1.929,0,0,1-1.929,1.93H530.187a1.627,1.627,0,0,1-.277-.022,1.928,1.928,0,0,1-1.653-1.908V213.243a1.929,1.929,0,0,1,1.929-1.93H660.308a1.929,1.929,0,0,1,1.93,1.929Z" transform="translate(-359.472 -139.388)" fill="#e6e6e6"/>
  <circle id="Ellipse_21" data-name="Ellipse 21" cx="16.931" cy="16.931" r="16.931" transform="translate(184.654 83.64)" fill="#386082"/>
  <path id="Path_53" data-name="Path 53" d="M616.034,300.609H532.978a1.692,1.692,0,0,1-.31-.025l39.282-68.042a2.75,2.75,0,0,1,4.788,0L603.1,278.2l1.263,2.185Z" transform="translate(-361.358 -147.864)" fill="#413e83"/>
  <path id="Path_54" data-name="Path 54" d="M423.59,250.023H395.233l13.92-20.22,1-1.456.5-.728,1.263,2.185Z" transform="translate(-168.914 -97.279)" opacity="0.2"/>
  <path id="Path_55" data-name="Path 55" d="M705.4,315.575H633.563l13.921-20.22,1-1.457,18.14-26.351a3.67,3.67,0,0,1,5.448-.326,3.264,3.264,0,0,1,.261.326Z" transform="translate(-404.478 -162.831)" fill="#413e83"/>
  <path id="Path_56" data-name="Path 56" d="M599.4,445.475a6.947,6.947,0,0,0-6.523-4.587H449.825a6.928,6.928,0,0,0-6.931,6.931V557.594a6.941,6.941,0,0,0,6.931,6.931h143.05a6.941,6.941,0,0,0,6.931-6.931V447.819A6.878,6.878,0,0,0,599.4,445.475Z" transform="translate(-322.99 -237.503)" fill="#fff"/>
  <path id="Path_57" data-name="Path 57" d="M599.4,445.475a6.947,6.947,0,0,0-6.523-4.587H449.825a6.928,6.928,0,0,0-6.931,6.931V557.594a6.941,6.941,0,0,0,6.931,6.931h143.05a6.941,6.941,0,0,0,6.931-6.931V447.819A6.878,6.878,0,0,0,599.4,445.475Zm-.408,112.119a6.123,6.123,0,0,1-6.116,6.116H449.825a6.123,6.123,0,0,1-6.116-6.116V447.819a6.123,6.123,0,0,1,6.116-6.116h143.05a6.123,6.123,0,0,1,6.116,6.116Z" transform="translate(-322.99 -237.503)" fill="#3f3d56"/>
  <path id="Path_58" data-name="Path 58" d="M597.653,465.243V541.9a1.929,1.929,0,0,1-1.929,1.93H465.6a1.627,1.627,0,0,1-.277-.022,1.928,1.928,0,0,1-1.653-1.908V465.243a1.929,1.929,0,0,1,1.929-1.93H595.723a1.929,1.929,0,0,1,1.93,1.929Z" transform="translate(-331.87 -247.087)" fill="#e6e6e6"/>
  <circle id="Ellipse_22" data-name="Ellipse 22" cx="16.931" cy="16.931" r="16.931" transform="translate(147.671 227.941)" fill="#386082"/>
  <path id="Path_59" data-name="Path 59" d="M551.449,552.609H468.393a1.7,1.7,0,0,1-.31-.025l39.282-68.042a2.75,2.75,0,0,1,4.788,0L538.516,530.2l1.263,2.185Z" transform="translate(-333.755 -255.563)" fill="#413e83"/>
  <path id="Path_60" data-name="Path 60" d="M359.005,502.023H330.648l13.92-20.22,1-1.456.5-.728,1.263,2.185Z" transform="translate(-141.311 -204.978)" opacity="0.2"/>
  <path id="Path_61" data-name="Path 61" d="M640.815,567.575H568.978l13.921-20.22,1-1.457,18.14-26.351a3.671,3.671,0,0,1,5.448-.326,3.277,3.277,0,0,1,.261.326Z" transform="translate(-376.876 -270.53)" fill="#413e83"/>
  <path id="Path_62" data-name="Path 62" d="M565.664,713.48H524.435a10.594,10.594,0,1,1,0-21.187h41.229a10.594,10.594,0,0,1,0,21.187Z" transform="translate(-353.312 -344.948)" fill="#413e83"/>
  <path id="Path_63" data-name="Path 63" d="M708.744,713.48H667.516a10.594,10.594,0,1,1,0-21.187h41.229a10.594,10.594,0,1,1,0,21.187Z" transform="translate(-414.461 -344.948)" fill="#f2f2f2"/>
  <path id="Path_64" data-name="Path 64" d="M652.66,813.438H234.073a.573.573,0,1,1,0-1.145H652.66a.573.573,0,0,1,0,1.145Z" transform="translate(-233.5 -396.233)" fill="#3f3d56"/>
</svg>
