<svg id="menu" xmlns="http://www.w3.org/2000/svg" width="36.403" height="32.381" viewBox="0 0 36.403 32.381">
  <path id="Path" d="M1.3,5.4H35.1a1.325,1.325,0,0,0,1.3-1.349v-2.7A1.325,1.325,0,0,0,35.1,0H1.3A1.325,1.325,0,0,0,0,1.349v2.7A1.325,1.325,0,0,0,1.3,5.4Z" transform="translate(0 13.492)" fill="#386082"/>
  <path id="Shape" d="M1.3,32.381A1.324,1.324,0,0,1,0,31.032v-2.7a1.324,1.324,0,0,1,1.3-1.349H35.1a1.326,1.326,0,0,1,1.3,1.349v2.7a1.326,1.326,0,0,1-1.3,1.349ZM1.3,5.4A1.326,1.326,0,0,1,0,4.047v-2.7A1.324,1.324,0,0,1,1.3,0H35.1a1.326,1.326,0,0,1,1.3,1.349v2.7A1.327,1.327,0,0,1,35.1,5.4Z" transform="translate(0)" fill="#386082"/>
</svg>
