<svg id="phone" xmlns="http://www.w3.org/2000/svg" width="31.852" height="33.055" viewBox="0 0 31.852 33.055">
  <path id="Shape" d="M28.866,33.055C12.934,33.055,0,19.659,0,3.1a1.539,1.539,0,0,1,1.156-1.51L4.625.758,9.332,12.152,8.125,13.176A23.505,23.505,0,0,0,19.149,24.617l.987-1.252,10.988,4.886-.8,3.6a1.506,1.506,0,0,1-1.454,1.2ZM21.45,21.7l.785-.995a1.456,1.456,0,0,1,1.742-.446l6.967,3.1a1.583,1.583,0,0,1,.871,1.782l-.236,1.065ZM6.595.286,7.627.039a1.487,1.487,0,0,1,1.71.9l2.987,7.231a1.581,1.581,0,0,1-.43,1.808l-.961.815Z" transform="translate(0 0)" fill="#386082"/>
  <path id="Shape-2" data-name="Shape" d="M15.712,23.382l1.33-1.686L27.3,26.261l-.46,2.073ZM0,.479,2,0l4.4,10.642-1.624,1.38Z" transform="translate(4.55)" fill="#386082" opacity="0.2"/>
</svg>
