<svg id="search" xmlns="http://www.w3.org/2000/svg" width="39.436" height="40.926" viewBox="0 0 39.436 40.926">
  <path id="Shape" d="M0,17.052C0,7.634,7.356,0,16.431,0S32.863,7.634,32.863,17.052,25.507,34.1,16.431,34.1,0,26.47,0,17.052Z" fill="#386082" opacity="0.6"/>
  <path id="Path" d="M13.879,11.993l-2.326,2.412a1.915,1.915,0,0,1-2.786,0L.575,5.907A2.085,2.085,0,0,1,0,4.458V3.069L2.958,0H4.3a1.937,1.937,0,0,1,1.4.6l8.193,8.5a2.11,2.11,0,0,1-.008,2.9Z" transform="translate(24.976 25.92)" fill="#386082"/>
</svg>
